<?xml version="1.0" standalone="no"?>
<svg width="460" height="115" viewBox="0 0 460 115" version="1.1" xmlns="http://www.w3.org/2000/svg">
	<rect x="-25" y="-25" width="870" height="520" fill="white" />
	<rect x="32.5" y="70" width="450" height="45" fill="#0D1117" />
	<text font-size="28.5" fill="#fff" transform="translate(42.5,97.5)">Funny TS type utilities</text>
	<path transform="scale(0.05,-0.05) translate(250,-1000)" fill="#804d17" d="M404 0L367 162L129 162L93 0L9 0Q26 66 47 143Q68 220 92.50 301Q117 382 144 463.50Q171 545 201 619L303 619Q332 545 358.50 463.50Q385 382 408.50 301Q432 220 453 143Q474 66 491 0L404 0M249 547Q226 484 199 401Q172 318 148 230L348 230Q325 320 298.50 403.50Q272 487 249 547Z" />
	<path transform="scale(0.05,-0.05) translate(750,-1000)" fill="#804d17" d="M49 231Q49 294 69 340Q89 386 124 416Q159 446 205.50 460.50Q252 475 305 475Q339 475 372.50 470.50Q406 466 444 454L425 383Q392 395 364.50 398.50Q337 402 309 402Q273 402 241 392.50Q209 383 185.50 362.50Q162 342 148 309.50Q134 277 134 231Q134 187 147 155.50Q160 124 183.50 103.50Q207 83 240 73Q273 63 313 63Q345 63 374.50 66.50Q404 70 439 82L451 13Q416 0 380-5.50Q344-11 302-11Q246-11 199.50 4.50Q153 20 119.50 50Q86 80 67.50 125.50Q49 171 49 231Z" />
	<path transform="scale(0.05,-0.05) translate(1250,-1000)" fill="#804d17" d="M49 231Q49 294 69 340Q89 386 124 416Q159 446 205.50 460.50Q252 475 305 475Q339 475 372.50 470.50Q406 466 444 454L425 383Q392 395 364.50 398.50Q337 402 309 402Q273 402 241 392.50Q209 383 185.50 362.50Q162 342 148 309.50Q134 277 134 231Q134 187 147 155.50Q160 124 183.50 103.50Q207 83 240 73Q273 63 313 63Q345 63 374.50 66.50Q404 70 439 82L451 13Q416 0 380-5.50Q344-11 302-11Q246-11 199.50 4.50Q153 20 119.50 50Q86 80 67.50 125.50Q49 171 49 231Z" />
	<path transform="scale(0.05,-0.05) translate(1750,-1000)" fill="#804d17" d="M429 13Q402 6 357.50-2Q313-10 253-10Q200-10 165 5.50Q130 21 108 49.50Q86 78 77 117Q68 156 68 203L68 464L150 464L150 221Q150 135 175.50 99Q201 63 261 63Q274 63 287.50 64Q301 65 313 66.50Q325 68 334 69.50Q343 71 346 72L346 464L429 464L429 13Z" />
	<path transform="scale(0.05,-0.05) translate(2250,-1000)" fill="#804d17" d="M107 0L107 439Q209 474 313 474Q345 474 374 471.50Q403 469 438 461L423 388Q391 397 366.50 399.50Q342 402 313 402Q252 402 189 385L189 0L107 0Z" />
	<path transform="scale(0.05,-0.05) translate(2750,-1000)" fill="#0550AE" d="M141 255L458 124L435 55L49 219L49 290L435 454L458 385L141 255Z" />
	<path transform="scale(0.05,-0.05) translate(3250,-1000)" fill="#24292F" d="M461 619L461 549L291 549L291 0L209 0L209 549L39 549L39 619L461 619Z" />
	<path transform="scale(0.05,-0.05) translate(3750,-1000)" fill="#24292F" d="M51-87Q60-92 76.50-95Q93-98 107-98Q156-98 183.50-76.50Q211-55 234-6Q178 100 129 221.50Q80 343 48 464L138 464Q148 424 161.50 377.50Q175 331 192 282Q209 233 228.50 183.50Q248 134 270 89Q286 135 300 180Q314 225 326 270.50Q338 316 350 363.50Q362 411 375 464L461 464Q429 334 389.50 212Q350 90 305-14Q288-54 268.50-83Q249-112 226-131Q203-150 174-159Q145-168 108-168Q89-168 66.50-163Q44-158 36-154L51-87Z" />
	<path transform="scale(0.05,-0.05) translate(4250,-1000)" fill="#24292F" d="M375 231Q375 312 337 356.50Q299 401 238 401Q204 401 184.50 398Q165 395 154 391L154 98Q168 85 195 74Q222 63 251 63Q284 63 307.50 76Q331 89 346 111.50Q361 134 368 164.50Q375 195 375 231M460 231Q460 178 446.50 133.50Q433 89 407.50 57Q382 25 345 7Q308-11 261-11Q224-11 196-2Q168 7 154 18L154-165L71-165L71 450Q98 458 140.50 466Q183 474 238 474Q288 474 329 457Q370 440 399 408.50Q428 377 444 332Q460 287 460 231Z" />
	<path transform="scale(0.05,-0.05) translate(4750,-1000)" fill="#24292F" d="M259 475Q353 475 404 416.50Q455 358 455 239L455 210L123 210Q128 138 170.50 100.50Q213 63 290 63Q334 63 365 70Q396 77 412 85L423 15Q408 7 369-2Q330-11 281-11Q221-11 175.50 7.50Q130 26 100 58Q70 90 55 134.50Q40 179 40 231Q40 293 59 339Q78 385 109 415Q140 445 179 460Q218 475 259 475M371 277Q371 336 340 370.50Q309 405 258 405Q229 405 205.50 394Q182 383 165 365Q148 347 138 324Q128 301 125 277L371 277Z" />
	<path transform="scale(0.05,-0.05) translate(5250,-1000)" fill="#0550AE" d="M49 385L72 454L458 290L458 219L72 55L49 124L366 255L49 385Z" />
</svg>